<svg xmlns="http://www.w3.org/2000/svg" width="64" height="64"><path d="M1.344 4A.5.5 0 0 0 1 4.5v15a.5.5 0 0 0 .5.5H6v4.5a.5.5 0 0 0 .875.313L8.094 23.5h13.094l4.437 4.813A.5.5 0 0 0 26.5 28v-4.5H31a.5.5 0 0 0 .5-.5V8a.5.5 0 0 0-.5-.5h-5v-3a.5.5 0 0 0-.5-.5h-24a.5.5 0 0 0-.156 0zM2 5h23v13.906L11.125 19H11a.5.5 0 0 0-.031.031.5.5 0 0 0-.031 0 .5.5 0 0 0-.282.125l-2.125 2.407L7 23.218V19.5a.5.5 0 0 0-.5-.5H2V5zm24.156 3.5H30.5v14H26a.5.5 0 0 0-.5.5v3.719l-3.75-4.063a.5.5 0 0 0-.375-.156H9.031L10 21.406 11.313 20H25.5a.5.5 0 0 0 .5-.5v-.031a.5.5 0 0 0 0-.063L26.156 8.5z" color="#000" font-family="Sans" font-weight="400" overflow="visible" style="text-indent:0;text-align:start;line-height:normal;text-transform:none;block-progression:tb;marker:none;-inkscape-font-specification:Sans"/></svg>